<?xml version="1.0" encoding="iso-8859-1"?>
<!-- Generator: Adobe Illustrator 19.0.0, SVG Export Plug-In . SVG Version: 6.00 Build 0)  -->
<svg version="1.1" id="Capa_1" xmlns="http://www.w3.org/2000/svg" xmlns:xlink="http://www.w3.org/1999/xlink" x="0px" y="0px"
	 viewBox="0 0 512 512" style="enable-background:new 0 0 512 512;" xml:space="preserve">
<path style="fill:#64B5F6;" d="M110.741,278.144c-3.985-1.654-8.574-0.745-11.627,2.304L64,315.584l-35.115-35.136
	c-4.16-4.171-10.914-4.179-15.085-0.019c-2.011,2.006-3.139,4.731-3.134,7.571v213.333c0,5.891,4.776,10.667,10.667,10.667h85.333
	c5.891,0,10.667-4.776,10.667-10.667V288C117.333,283.684,114.73,279.793,110.741,278.144z"/>
<path style="fill:#42A5F5;" d="M199.552,195.115c-4.165-4.164-10.917-4.164-15.083,0l-42.667,42.667
	c-2.007,2.001-3.135,4.718-3.136,7.552v256c0,5.891,4.776,10.667,10.667,10.667h85.333c5.891,0,10.667-4.776,10.667-10.667v-256
	c0.005-2.831-1.115-5.548-3.115-7.552L199.552,195.115z"/>
<path style="fill:#2196F3;" d="M327.552,152.448c-4.165-4.164-10.917-4.164-15.083,0l-42.667,42.667
	c-2.007,2.001-3.135,4.718-3.136,7.552v298.667c0,5.891,4.776,10.667,10.667,10.667h85.333c5.891,0,10.667-4.776,10.667-10.667
	V202.667c0.005-2.831-1.115-5.548-3.115-7.552L327.552,152.448z"/>
<path style="fill:#1976D2;" d="M498.219,131.115l-21.333-21.333c-2.004-1.999-4.721-3.12-7.552-3.115H448
	c-2.831-0.005-5.548,1.115-7.552,3.115l-42.667,42.667c-1.999,2.004-3.12,4.721-3.115,7.552v341.333
	c0,5.891,4.776,10.667,10.667,10.667h85.333c5.891,0,10.667-4.776,10.667-10.667V138.667
	C501.338,135.836,500.218,133.119,498.219,131.115z"/>
<path style="fill:#455A64;" d="M490.667,0h-64c-5.891-0.011-10.675,4.757-10.686,10.648c-0.005,2.84,1.123,5.565,3.134,7.571
	l24.469,24.448l-80.917,80.917l-35.115-35.136c-4.165-4.164-10.917-4.164-15.083,0l-77.803,77.803l-35.115-35.136
	c-4.165-4.164-10.917-4.164-15.083,0L64,251.584l-35.115-35.136c-4.237-4.093-10.99-3.975-15.083,0.262
	c-3.992,4.134-3.992,10.687,0,14.82l42.667,42.667c4.165,4.164,10.917,4.164,15.083,0L192,153.749l35.115,35.115
	c4.165,4.164,10.917,4.164,15.083,0L320,111.083l35.115,35.115c4.165,4.164,10.917,4.164,15.083,0l88.469-88.448l24.448,24.448
	c2.001,2.007,4.718,3.135,7.552,3.136c1.399,0.003,2.784-0.273,4.075-0.811c3.989-1.649,6.591-5.539,6.592-9.856v-64
	C501.333,4.776,496.558,0,490.667,0z"/>
<path d="M106.667,512H21.333c-5.891,0-10.667-4.776-10.667-10.667V288c-0.011-5.891,4.757-10.675,10.648-10.686
	c2.84-0.005,5.565,1.123,7.571,3.134L64,315.584l35.115-35.115c4.16-4.171,10.914-4.179,15.085-0.019
	c2.006,2.001,3.133,4.717,3.134,7.55v213.333C117.333,507.224,112.558,512,106.667,512z M32,490.667h64V313.749l-24.448,24.469
	c-4.165,4.164-10.917,4.164-15.083,0L32,313.749V490.667z"/>
<path d="M234.667,512h-85.333c-5.891,0-10.667-4.776-10.667-10.667v-256c-0.005-2.831,1.115-5.548,3.115-7.552l42.667-42.667
	c4.165-4.164,10.917-4.164,15.083,0l42.667,42.667c1.999,2.004,3.12,4.721,3.115,7.552v256
	C245.312,507.216,240.549,511.988,234.667,512z M160,490.667h64V249.749l-32-32l-32,32V490.667z"/>
<path d="M362.667,512h-85.333c-5.891,0-10.667-4.776-10.667-10.667V202.667c-0.005-2.831,1.115-5.548,3.115-7.552l42.667-42.667
	c4.165-4.164,10.917-4.164,15.083,0l42.667,42.667c2.007,2.001,3.135,4.718,3.136,7.552v298.667
	C373.333,507.224,368.558,512,362.667,512z M288,490.667h64V207.083l-32-32l-32,32V490.667z"/>
<path d="M490.667,512h-85.333c-5.891,0-10.667-4.776-10.667-10.667V160c-0.005-2.831,1.115-5.548,3.115-7.552l42.667-42.667
	c2.004-1.999,4.721-3.12,7.552-3.115h21.333c2.831-0.005,5.548,1.115,7.552,3.115l21.333,21.333c1.999,2.004,3.12,4.721,3.115,7.552
	v362.667C501.333,507.224,496.558,512,490.667,512z M416,490.667h64V143.083L464.917,128h-12.501L416,164.416V490.667z"/>
<path d="M64,277.333c-2.831,0.005-5.548-1.115-7.552-3.115l-42.667-42.667c-4.093-4.237-3.975-10.99,0.262-15.083
	c4.134-3.992,10.687-3.992,14.82,0L64,251.584l120.448-120.469c4.165-4.164,10.917-4.164,15.083,0l35.136,35.136l77.781-77.781
	c4.165-4.164,10.917-4.164,15.083,0l35.136,35.115l88.448-88.448c4.093-4.237,10.845-4.354,15.083-0.262
	c4.237,4.093,4.354,10.845,0.262,15.083c-0.086,0.089-0.173,0.176-0.262,0.262l-96,96c-4.165,4.164-10.917,4.164-15.083,0
	L320,111.083l-77.781,77.803c-4.165,4.164-10.917,4.164-15.083,0L192,153.749L71.552,274.219
	C69.548,276.218,66.831,277.338,64,277.333z"/>
<path d="M490.667,85.333c-2.831,0.005-5.548-1.115-7.552-3.115l-64-64c-4.171-4.16-4.179-10.914-0.019-15.085
	c2.006-2.011,4.731-3.139,7.571-3.134h64c5.891,0,10.667,4.776,10.667,10.667v64c-0.001,4.317-2.603,8.207-6.592,9.856
	C493.45,85.061,492.065,85.336,490.667,85.333z M452.416,21.333L480,48.917V21.333H452.416z"/>
<g>
</g>
<g>
</g>
<g>
</g>
<g>
</g>
<g>
</g>
<g>
</g>
<g>
</g>
<g>
</g>
<g>
</g>
<g>
</g>
<g>
</g>
<g>
</g>
<g>
</g>
<g>
</g>
<g>
</g>
</svg>
