<?xml version="1.0" encoding="iso-8859-1"?>
<!-- Generator: Adobe Illustrator 19.0.0, SVG Export Plug-In . SVG Version: 6.00 Build 0)  -->
<svg version="1.1" id="Capa_1" xmlns="http://www.w3.org/2000/svg" xmlns:xlink="http://www.w3.org/1999/xlink" x="0px" y="0px"
	 viewBox="0 0 512 512" style="enable-background:new 0 0 512 512;" xml:space="preserve">
<path style="fill:#FFFFFF;" d="M10.007,70v340.076L101.931,502h212.076c11.046,0,20-8.954,20-20V70c0-11.046-8.954-20-20-20h-284
	C18.961,50,10.007,58.954,10.007,70z"/>
<path style="fill:#FEE598;" d="M81.931,410.076H10.007L101.931,502v-71.924C101.931,419.03,92.976,410.076,81.931,410.076z"/>
<path style="fill:#FFA56F;" d="M334.007,70c0-11.046-8.954-20-20-20h-284c-11.046,0-20,8.954-20,20v58h324V70z"/>
<path style="fill:#FED045;" d="M436.574,160.59l5.714-9.897c8.837-15.305,28.407-20.549,43.713-11.713l0,0
	c15.305,8.837,20.549,28.407,11.713,43.713L371.873,400.656l-55.426-32l54.282-94.02L436.574,160.59z"/>
<path style="fill:#FF5D5D;" d="M486.002,138.98L486.002,138.98c-15.305-8.837-34.876-3.593-43.713,11.713l-14.857,25.733l55.426,32
	l14.857-25.733C506.551,167.388,501.307,147.817,486.002,138.98z"/>
<polygon style="fill:#FEE598;" points="371.873,400.656 307.589,448 316.447,368.656 "/>
<path d="M334.007,453c-5.522,0-10,4.477-10,10v19c0,5.514-4.486,10-10,10H111.931v-61.924c0-16.542-13.458-30-30-30H20.007V138h304
	v76.333c0,5.523,4.478,10,10,10s10-4.477,10-10V70c0-16.542-13.458-30-30-30h-24v-8c0-17.645-14.355-32-32-32s-32,14.355-32,32v8
	h-22v-8c0-17.645-14.355-32-32-32s-32,14.355-32,32v8h-22v-8c0-17.645-14.355-32-32-32s-32,14.355-32,32v8h-24
	c-16.542,0-30,13.458-30,30v340.076c0,2.652,1.054,5.196,2.929,7.071l91.924,91.924c1.876,1.875,4.419,2.929,7.071,2.929h212.076
	c16.542,0,30-13.458,30-30v-19C344.007,457.478,339.529,453,334.007,453z M91.931,430.076v47.781l-57.782-57.781h47.782
	C87.444,420.076,91.931,424.562,91.931,430.076z M246.007,32c0-6.617,5.383-12,12-12s12,5.383,12,12v8h-24L246.007,32L246.007,32z
	 M160.007,32c0-6.617,5.383-12,12-12s12,5.383,12,12v8h-24V32z M74.007,32c0-6.617,5.383-12,12-12s12,5.383,12,12v8h-24V32z
	 M30.007,60h68v8c0,6.617-5.383,12-12,12c-5.522,0-10,4.477-10,10s4.478,10,10,10c17.645,0,32-14.355,32-32v-8h66v8
	c0,6.617-5.383,12-12,12c-5.522,0-10,4.477-10,10s4.478,10,10,10c17.645,0,32-14.355,32-32v-8h66v8c0,6.617-5.383,12-12,12
	c-5.522,0-10,4.477-10,10s4.478,10,10,10c17.645,0,32-14.355,32-32v-8h24c5.514,0,10,4.486,10,10v48h-304V70
	C20.007,64.486,24.493,60,30.007,60z"/>
<path d="M334.007,246.13c-2.63,0-5.21,1.06-7.07,2.93c-1.86,1.86-2.93,4.44-2.93,7.07s1.069,5.2,2.93,7.07
	c1.86,1.86,4.44,2.93,7.07,2.93s5.21-1.07,7.069-2.93c1.86-1.86,2.931-4.44,2.931-7.07s-1.07-5.21-2.931-7.07
	C339.217,247.19,336.637,246.13,334.007,246.13z"/>
<path d="M270.179,230H73.835c-5.522,0-10,4.477-10,10s4.478,10,10,10h196.344c5.522,0,10-4.477,10-10S275.701,230,270.179,230z"/>
<path d="M270.179,286H73.835c-5.522,0-10,4.477-10,10s4.478,10,10,10h196.344c5.522,0,10-4.477,10-10S275.701,286,270.179,286z"/>
<path d="M270.179,342H73.835c-5.522,0-10,4.477-10,10s4.478,10,10,10h196.344c5.522,0,10-4.477,10-10S275.701,342,270.179,342z"/>
<path d="M270.179,174H117.674c-5.522,0-10,4.477-10,10s4.478,10,10,10h152.505c5.522,0,10-4.477,10-10S275.701,174,270.179,174z"/>
<path d="M73.837,194c2.63,0,5.21-1.07,7.069-2.93c1.86-1.86,2.931-4.44,2.931-7.07s-1.07-5.21-2.931-7.07
	c-1.859-1.86-4.439-2.93-7.069-2.93c-2.641,0-5.21,1.07-7.07,2.93c-1.86,1.86-2.93,4.44-2.93,7.07s1.069,5.21,2.93,7.07
	S71.196,194,73.837,194z"/>
<path d="M491.002,130.32c-9.715-5.609-21.033-7.099-31.871-4.196c-10.836,2.904-19.894,9.854-25.502,19.569L307.787,363.656
	c-0.689,1.195-1.125,2.52-1.278,3.891l-8.858,79.344c-0.44,3.948,1.498,7.783,4.938,9.77c1.553,0.896,3.278,1.34,4.999,1.34
	c2.092,0,4.176-0.655,5.931-1.948l64.284-47.344c1.111-0.818,2.041-1.857,2.73-3.052l125.841-217.963
	C517.954,167.638,511.058,141.9,491.002,130.32z M324.689,384.962l28.942,16.71l-33.568,24.722L324.689,384.962z M368.213,386.996
	l-38.105-22l100.984-174.91l38.105,22L368.213,386.996z M489.054,177.693l-9.857,17.073l-38.105-22l9.857-17.073
	c2.938-5.089,7.682-8.729,13.358-10.25c5.678-1.522,11.605-0.74,16.694,2.198s8.729,7.682,10.25,13.358
	C492.772,166.675,491.992,172.604,489.054,177.693z"/>
<g>
</g>
<g>
</g>
<g>
</g>
<g>
</g>
<g>
</g>
<g>
</g>
<g>
</g>
<g>
</g>
<g>
</g>
<g>
</g>
<g>
</g>
<g>
</g>
<g>
</g>
<g>
</g>
<g>
</g>
</svg>
