<?xml version="1.0" encoding="iso-8859-1"?>
<!-- Generator: Adobe Illustrator 19.0.0, SVG Export Plug-In . SVG Version: 6.00 Build 0)  -->
<svg version="1.1" id="Capa_1" xmlns="http://www.w3.org/2000/svg" xmlns:xlink="http://www.w3.org/1999/xlink" x="0px" y="0px"
	 viewBox="0 0 512.548 512.548" style="enable-background:new 0 0 512.548 512.548;" xml:space="preserve">
<path style="fill:#FFC107;" d="M266.941,0c-5.891,0-10.667,4.776-10.667,10.667v234.667c0,5.891,4.776,10.667,10.667,10.667h234.667
	c5.891,0,10.667-4.776,10.667-10.667C512.121,109.903,402.371,0.153,266.941,0z"/>
<path style="fill:#2196F3;" d="M382.034,452.117L234.941,263.019V32c0-5.891-4.776-10.667-10.667-10.667
	c-123.52,0-224,110.059-224,245.333C0.427,402.097,110.177,511.847,245.607,512c49.173,3.821,97.795-12.45,134.763-45.099
	C384.837,463.237,385.575,456.683,382.034,452.117z"/>
<path style="fill:#4CAF50;" d="M501.607,277.333H288.274c-5.891,0.001-10.666,4.778-10.664,10.669c0,2.437,0.835,4.8,2.366,6.696
	l138.667,171.669c1.86,2.308,4.596,3.737,7.552,3.947h0.747c2.699,0.002,5.299-1.02,7.275-2.859
	c49.69-46.469,77.943-111.423,78.059-179.456C512.274,282.109,507.499,277.333,501.607,277.333z"/>
<path d="M501.607,256H266.941c-5.891,0-10.667-4.776-10.667-10.667V10.667C256.274,4.776,261.05,0,266.941,0
	c135.43,0.153,245.181,109.903,245.333,245.333C512.274,251.224,507.499,256,501.607,256z M277.607,234.667h213.077
	c-5.636-115.264-97.813-207.442-213.077-213.077V234.667z"/>
<path d="M245.607,512C110.177,511.847,0.427,402.097,0.274,266.667c0-135.275,100.48-245.333,224-245.333
	c5.891,0,10.667,4.776,10.667,10.667v230.997l147.093,189.12c3.532,4.556,2.804,11.094-1.643,14.763
	C343.42,499.54,294.79,515.819,245.607,512z M213.607,42.987c-106.816,6.08-192,104.213-192,223.68
	c0.141,123.653,100.347,223.859,224,224c40.603,3.413,80.995-8.658,113.067-33.792L215.741,273.216
	c-1.416-1.887-2.166-4.19-2.133-6.549V42.987z"/>
<path d="M426.941,470.336h-0.747c-2.956-0.209-5.692-1.639-7.552-3.947L279.975,294.72c-3.711-4.575-3.011-11.292,1.564-15.004
	c1.904-1.545,4.283-2.386,6.735-2.383h213.333c5.891,0,10.667,4.776,10.667,10.667c-0.102,68.035-28.358,132.995-78.059,179.456
	C432.243,469.303,429.643,470.332,426.941,470.336z M310.589,298.667l117.333,145.067c37.776-39.174,60.074-90.712,62.763-145.067
	H310.589z"/>
<g>
</g>
<g>
</g>
<g>
</g>
<g>
</g>
<g>
</g>
<g>
</g>
<g>
</g>
<g>
</g>
<g>
</g>
<g>
</g>
<g>
</g>
<g>
</g>
<g>
</g>
<g>
</g>
<g>
</g>
</svg>
